<?xml version="1.0" encoding="UTF-8" standalone="no"?><!-- Created with Inkscape (http://www.inkscape.org/) -->
<svg xmlns:dc="http://purl.org/dc/elements/1.1/" xmlns:cc="http://creativecommons.org/ns#"
    xmlns:rdf="http://www.w3.org/1999/02/22-rdf-syntax-ns#" xmlns:svg="http://www.w3.org/2000/svg"
    xmlns="http://www.w3.org/2000/svg" xmlns:xlink="http://www.w3.org/1999/xlink"
    xmlns:sodipodi="http://sodipodi.sourceforge.net/DTD/sodipodi-0.dtd"
    xmlns:inkscape="http://www.inkscape.org/namespaces/inkscape" id="svg2"
    sodipodi:docname="compass-simple.svg" viewBox="0 0 367.55977 395.57448" version="1.1"
    inkscape:version="0.91 r13725">

    <defs id="defs4">
        <linearGradient id="linearGradient3699" y2="149.63" gradientUnits="userSpaceOnUse"
            x2="303.35001" y1="59.237" x1="244.37" inkscape:collect="always"
            gradientTransform="matrix(1.5598,0,0,1.5598,-847.66,-544.9)">
            <stop id="stop3695" style="stop-color:#eaf4f4" offset="0" />
            <stop id="stop3697" style="stop-color:#f2f2f2" offset="1" />
        </linearGradient>
        <linearGradient id="linearGradient3718" y2="878" gradientUnits="userSpaceOnUse" x2="153"
            gradientTransform="translate(346.5,-324.498)" y1="596" x1="-42"
            inkscape:collect="always">
            <stop id="stop3714" style="stop-color:#8e908b" offset="0" />
            <stop id="stop3716" style="stop-color:#eaece9" offset="1" />
        </linearGradient>
        <filter id="filter3753" inkscape:collect="always" style="color-interpolation-filters:sRGB">
            <feGaussianBlur id="feGaussianBlur3755" stdDeviation="1.2703906"
                inkscape:collect="always" />
        </filter>
        <linearGradient id="linearGradient3805" y2="205.2" gradientUnits="userSpaceOnUse"
            x2="62.015999" gradientTransform="translate(338,167)" y1="65.5" x1="4"
            inkscape:collect="always">
            <stop id="stop3801" style="stop-color:#ffffff" offset="0" />
            <stop id="stop3803" style="stop-color:#ffffff;stop-opacity:0" offset="1" />
        </linearGradient>
        <linearGradient id="linearGradient3816" y2="364" gradientUnits="userSpaceOnUse" x2="-8"
            gradientTransform="matrix(0.94313,-0.33242,0.33242,0.94313,308.18,90.01)" y1="475"
            x1="-8" inkscape:collect="always">
            <stop id="stop3812" style="stop-color:#e2e4df" offset="0" />
            <stop id="stop3814" style="stop-color:#e2e4df;stop-opacity:0" offset="1" />
        </linearGradient>
        <linearGradient id="linearGradient5575" inkscape:collect="always">
            <stop id="stop5577" style="stop-color:#f2f2f2" offset="0" />
            <stop id="stop5579" style="stop-color:#f2f2f2;stop-opacity:0" offset="1" />
        </linearGradient>
        <filter id="filter5738" inkscape:collect="always" style="color-interpolation-filters:sRGB">
            <feGaussianBlur id="feGaussianBlur5740" stdDeviation="1.0392188"
                inkscape:collect="always" />
        </filter>
        <linearGradient id="linearGradient6673" y2="231.08" gradientUnits="userSpaceOnUse"
            x2="372.04999" y1="365.79001" x1="383.95999" inkscape:collect="always">
            <stop id="stop5559" style="stop-color:#8b0000" offset="0" />
            <stop id="stop5561" style="stop-color:#a40000;stop-opacity:0" offset="1" />
        </linearGradient>
        <linearGradient id="linearGradient6675" y2="523.40002" gradientUnits="userSpaceOnUse"
            x2="372.03" y1="372.06" x1="382.95001" inkscape:collect="always">
            <stop id="stop5567" style="stop-color:#173560" offset="0" />
            <stop id="stop5569" style="stop-color:#204a87;stop-opacity:0" offset="1" />
        </linearGradient>
        <linearGradient id="linearGradient6677" y2="223.31" xlink:href="#linearGradient5575"
            gradientUnits="userSpaceOnUse" x2="372.10999"
            gradientTransform="matrix(1,0,0,0.92286,0,14.363)" y1="372.29999" x1="372.10999"
            inkscape:collect="always" />
        <linearGradient id="linearGradient6679" y2="223.31" xlink:href="#linearGradient5575"
            gradientUnits="userSpaceOnUse" x2="372.10999"
            gradientTransform="matrix(1,0,0,-0.91048,0,725.31)" y1="372.29999" x1="372.10999"
            inkscape:collect="always" />
        <linearGradient id="linearGradient6681" y2="386.54999" gradientUnits="userSpaceOnUse"
            x2="386.54999" y1="362.60999" x1="363.45001" inkscape:collect="always">
            <stop id="stop5597" style="stop-color:#eeeeec" offset="0" />
            <stop id="stop5599" style="stop-color:#d3d7cf;stop-opacity:0" offset="1" />
        </linearGradient>
        <linearGradient id="linearGradient6683" y2="370.92999" gradientUnits="userSpaceOnUse"
            x2="307.95999" y1="335.03" x1="286.01999" inkscape:collect="always">
            <stop id="stop5605" style="stop-color:#888a85" offset="0" />
            <stop id="stop5607" style="stop-color:#d3d7cf" offset="1" />
        </linearGradient>
        <linearGradient id="linearGradient6685" y2="372.04999" gradientUnits="userSpaceOnUse"
            x2="372.04999"
            gradientTransform="matrix(0.84331,-0.53743,0.53743,0.84331,-141.65,258.25)"
            y1="372.04999" x1="372.04999" inkscape:collect="always">
            <stop id="stop5617" style="stop-color:#888a85" offset="0" />
            <stop id="stop5619" style="stop-color:#babdb6" offset="1" />
        </linearGradient>
        <linearGradient id="linearGradient6687" y2="372.04999" gradientUnits="userSpaceOnUse"
            x2="372.04999"
            gradientTransform="matrix(0.53743,0.84331,-0.84331,0.53743,485.84,-141.65)"
            y1="372.04999" x1="372.04999" inkscape:collect="always">
            <stop id="stop5641" style="stop-color:#888a85" offset="0" />
            <stop id="stop5643" style="stop-color:#d3d7cf" offset="1" />
        </linearGradient>
    </defs>
    <sodipodi:namedview id="base" bordercolor="#666666" inkscape:pageshadow="2"
        inkscape:guide-bbox="true" pagecolor="#ffffff" inkscape:window-height="876"
        inkscape:window-maximized="1" inkscape:zoom="0.70710678" inkscape:window-x="0"
        showgrid="false" borderopacity="1.0" inkscape:current-layer="layer2" inkscape:cx="371.28235"
        inkscape:cy="172.00844" showguides="true" inkscape:window-y="24"
        inkscape:window-width="1600" inkscape:pageopacity="0.0" inkscape:document-units="px"
        fit-margin-top="5" units="mm" fit-margin-left="5" fit-margin-right="5"
        fit-margin-bottom="5" />
    <g id="layer1" inkscape:label="Capa 1" inkscape:groupmode="layer"
        transform="translate(-214.92421,-433.22794)">
        <g id="g5800" inkscape:transform-center-x="-138.08531"
            transform="matrix(0.81707,0,0,0.81707,24.147,292.91)">

            <path id="path5677"
                d="m 378.97,186.03 -11.25,167.34 c -6.3067,3.8134 -10.5,10.74 -10.5,18.656 l 7.3125,0 c 0,0.0104 -2e-5,0.0209 0,0.0312 l -7.25,0 c 0,7.916 4.1933,14.843 10.5,18.656 l 11.25,167.34 11.25,-167.31 c 1.5874,-0.9514 3.0217,-2.0963 4.3125,-3.4062 1.9436,-1.9683 3.5099,-4.2838 4.5938,-6.875 0.18015,-0.43066 0.34727,-0.86828 0.5,-1.3125 0.61093,-1.7769 0.99446,-3.673 1.125,-5.625 0.0326,-0.488 0.0625,-0.97241 0.0625,-1.4688 l -7.3438,0 c 2e-5,-0.0104 0,-0.0208 0,-0.0312 l 7.2812,0 c 0,-3.4644 -0.81216,-6.75 -2.25,-9.6562 -0.004,-0.008 0.004,-0.0231 0,-0.0312 -1.656,-3.3364 -4.1386,-6.154 -7.1875,-8.25 -0.37988,-0.26182 -0.75939,-0.51215 -1.1562,-0.75 l -11.25,-167.31 z"
                style="fill:#babdb6;filter:url(#filter5738)"
                transform="matrix(0.95106,0.30902,-0.30902,0.95106,221.35,-57.164)"
                inkscape:connector-curvature="0" />
            <g id="g5663" transform="matrix(0.95106,0.30902,-0.30902,0.95106,221.35,-57.164)">
                <path id="path5435"
                    style="fill:#cc0000;stroke:#a40000;stroke-width:1.71340001;stroke-linecap:round;stroke-linejoin:round"
                    d="m 371.98,186.03 -11.25,167.34 c -6.3067,3.8134 -10.5,10.74 -10.5,18.656 l 9.25,0 25,0 9.3438,0 c 0,-7.9414 -4.2441,-14.882 -10.594,-18.688 l -11.25,-167.31 z"
                    inkscape:connector-curvature="0" />
                <path id="path5459"
                    style="fill:#3465a4;stroke:#204a87;stroke-width:1.71340001;stroke-linecap:round;stroke-linejoin:round"
                    d="M 372.02,558.06 360.77,390.72 c -6.3067,-3.8134 -10.5,-10.74 -10.5,-18.656 l 9.25,0 25,0 9.3438,0 c 0,7.9414 -4.2441,14.882 -10.594,18.688 l -11.25,167.31 z"
                    inkscape:connector-curvature="0" />
                <path id="path5547" style="fill:url(#linearGradient6673)"
                    d="m 372.03,186.97 0,185.06 12.438,0 9.3438,0 c 0,-7.9414 -4.2441,-14.882 -10.594,-18.688 l -11.188,-166.38 z"
                    inkscape:connector-curvature="0" />
                <path id="path5552" style="fill:url(#linearGradient6675)"
                    d="m 372.03,372.06 0,186 11.25,-167.31 c 6.3497,-3.8056 10.594,-10.746 10.594,-18.688 l -9.3438,0 -12.5,0 z"
                    inkscape:connector-curvature="0" />
                <path id="path5573" sodipodi:nodetypes="cc"
                    style="fill:#f2f2f2;stroke:url(#linearGradient6677);stroke-width:1.22389996"
                    d="m 371.94,186.18 0.35355,171.3" inkscape:connector-curvature="0" />
                <path id="path5583" sodipodi:nodetypes="cc"
                    style="fill:#f2f2f2;stroke:url(#linearGradient6679);stroke-width:1.22389996"
                    d="m 371.94,555.8 0.35355,-169" inkscape:connector-curvature="0" />
                <path id="path5589" style="fill:url(#linearGradient6681)"
                    d="m 372.05,357.55 c -8.0081,0 -14.5,6.4919 -14.5,14.5 0,8.0081 6.4919,14.5 14.5,14.5 8.0081,0 14.5,-6.4919 14.5,-14.5 0,-8.0081 -6.4919,-14.5 -14.5,-14.5 z m 0,2.125 c 6.8366,0 12.406,5.5384 12.406,12.375 0,6.8366 -5.5697,12.406 -12.406,12.406 -6.8366,0 -12.375,-5.5697 -12.375,-12.406 0,-6.8366 5.5384,-12.375 12.375,-12.375 z"
                    inkscape:connector-curvature="0" />
                <ellipse id="path5591" style="fill:url(#linearGradient6683)"
                    transform="matrix(0.83362,0,0,0.51521,121.23,187.06)" cx="300.87393"
                    cy="359.05533" rx="14.849242" ry="24.026579" />
                <path id="rect5611" sodipodi:nodetypes="ccccscccc"
                    style="fill:url(#linearGradient6685)"
                    d="m 366.77,363.77 c 0.33036,-0.21053 0.76579,-0.11406 0.97632,0.21629 l 5.3028,7.4162 4.4828,7.9387 c 0.21053,0.33036 0.11408,0.7658 -0.21628,0.97633 -0.33036,0.21053 -0.7658,0.11407 -0.97633,-0.21628 l -5.4146,-7.3449 -4.371,-8.01 c -0.21053,-0.33035 -0.11407,-0.76579 0.21629,-0.97633 z"
                    inkscape:connector-curvature="0" />
                <path id="rect5635" sodipodi:nodetypes="ccccscccc"
                    style="fill:url(#linearGradient6687)"
                    d="m 380.32,366.77 c 0.21053,0.33036 0.11407,0.76579 -0.21629,0.97633 l -7.4874,5.1909 -7.8675,4.5946 c -0.33035,0.21053 -0.76579,0.11408 -0.97633,-0.21628 -0.21053,-0.33036 -0.11407,-0.7658 0.21628,-0.97633 l 7.3924,-5.34 7.9625,-4.4456 c 0.33035,-0.21053 0.7658,-0.11407 0.97633,0.21629 z"
                    inkscape:connector-curvature="0" />
            </g>

        </g>

    </g>

</svg>